<svg width="50" height="51" viewBox="0 0 50 51" fill="none" xmlns="http://www.w3.org/2000/svg">
<path d="M33.4059 30.6859C31.9716 29.5142 29.9322 29.5665 28.5591 30.7092L19.4735 23.4809C19.587 23.0471 19.6268 22.5928 19.5805 22.1331C19.478 21.1202 18.9875 20.2077 18.1984 19.564C16.5706 18.2351 14.1646 18.4789 12.8357 20.1068C11.6422 21.5689 11.7208 23.656 12.9283 25.0296L7.29742 31.4441C6.51533 30.8242 5.5402 30.5336 4.54816 30.6381C3.53523 30.7401 2.62279 31.2311 1.97901 32.0197C0.650152 33.648 0.893933 36.0535 2.52179 37.3824C3.20886 37.9431 4.04965 38.2416 4.92478 38.2416C5.05463 38.2416 5.18498 38.2351 5.31582 38.2217C6.32876 38.1192 7.2412 37.6286 7.88498 36.8396C8.52876 36.051 8.82677 35.059 8.72428 34.0461C8.67204 33.5286 8.51682 33.0376 8.27354 32.5948L14.1228 25.9316C14.6502 26.1888 15.2168 26.3267 15.7855 26.3267C16.8919 26.3267 17.9895 25.8485 18.7417 24.9272C18.7621 24.9023 18.7785 24.8759 18.7979 24.8505L27.6193 31.8689C26.7959 33.4386 27.1601 35.4277 28.5855 36.5913C29.2919 37.1675 30.1442 37.448 30.9919 37.448C32.0984 37.448 33.1959 36.9704 33.9482 36.0485C34.5919 35.26 34.89 34.2679 34.7875 33.255C34.6855 32.2421 34.1939 31.3296 33.4059 30.6859ZM6.72826 35.8963C6.33672 36.3764 5.7815 36.6749 5.16508 36.7371C4.55115 36.8013 3.94567 36.6182 3.46508 36.2267C2.47453 35.4182 2.32677 33.955 3.13473 32.9635C3.94319 31.9729 5.40737 31.8252 6.39742 32.6336C6.49294 32.7117 6.57553 32.8008 6.65662 32.8908C6.69791 32.9714 6.75364 33.0466 6.82627 33.1102C7.04966 33.4301 7.19791 33.7978 7.23871 34.1968C7.3014 34.8127 7.1203 35.4162 6.72826 35.8963ZM17.585 23.9834C17.1934 24.463 16.6382 24.7615 16.0223 24.8242C15.4059 24.8864 14.8024 24.7053 14.3223 24.3137C13.3317 23.5053 13.1835 22.0416 13.9919 21.051C14.8004 20.06 16.2646 19.9122 17.2546 20.7207C17.7347 21.1122 18.0332 21.6675 18.0954 22.2839C18.1581 22.8998 17.9765 23.5033 17.585 23.9834ZM32.7919 35.1048C31.984 36.0948 30.5203 36.2441 29.5293 35.4351C28.5387 34.6267 28.3905 33.163 29.1989 32.1719C29.6566 31.6112 30.3243 31.3207 30.9974 31.3207C31.5128 31.3207 32.0317 31.4913 32.4616 31.8421C33.4521 32.6505 33.6004 34.1137 32.7919 35.1048Z" fill="url(#paint0_linear_128_5823)"/>
<path d="M36.8487 27.4764C36.5263 27.2197 36.0567 27.2745 35.8005 27.5958L34.6691 29.0192C34.4124 29.3416 34.4662 29.8118 34.7885 30.0675C34.9259 30.1769 35.0895 30.2297 35.2527 30.2297C35.4721 30.2297 35.69 30.1332 35.8373 29.9481L36.9686 28.5247C37.2249 28.2023 37.1716 27.7322 36.8487 27.4764Z" fill="url(#paint1_linear_128_5823)"/>
<path d="M41.552 21.5664C41.2306 21.3102 40.76 21.3634 40.5038 21.6858L38.1525 24.641C37.8958 24.9634 37.9495 25.4331 38.2719 25.6898C38.4088 25.7992 38.5729 25.852 38.7361 25.852C38.9555 25.852 39.1734 25.7554 39.3207 25.5704L41.6719 22.6151C41.9277 22.2928 41.8744 21.8231 41.552 21.5664Z" fill="url(#paint2_linear_128_5823)"/>
<path d="M45.0353 17.1875C44.7139 16.9308 44.2432 16.985 43.987 17.3069L42.8547 18.7303C42.598 19.0527 42.6517 19.5224 42.9741 19.7791C43.1109 19.8885 43.2751 19.9413 43.4383 19.9413C43.6577 19.9413 43.8756 19.8447 44.0228 19.6597L45.1552 18.2363C45.4109 17.9139 45.3577 17.4442 45.0353 17.1875Z" fill="url(#paint3_linear_128_5823)"/>
<path d="M48.3154 12.6416C48.1139 12.4983 47.8547 12.4649 47.6244 12.5505L42.0358 14.6212C41.6498 14.7645 41.4523 15.1938 41.5955 15.5804C41.7383 15.9664 42.1672 16.164 42.5547 16.0212L47.1194 14.3301L47.0353 19.1973C47.0284 19.6097 47.3567 19.949 47.7692 19.9565C47.7736 19.9565 47.7781 19.9565 47.7821 19.9565C48.1881 19.9565 48.5204 19.6306 48.5279 19.2232L48.6304 13.264C48.6343 13.0167 48.5169 12.7839 48.3154 12.6416Z" fill="url(#paint4_linear_128_5823)"/>
<defs>
<linearGradient id="paint0_linear_128_5823" x1="1.12207" y1="28.4743" x2="34.8073" y2="28.4743" gradientUnits="userSpaceOnUse">
<stop stop-color="#2AF598"/>
<stop offset="1" stop-color="#009EFD"/>
</linearGradient>
<linearGradient id="paint1_linear_128_5823" x1="34.5068" y1="28.7721" x2="37.1307" y2="28.7721" gradientUnits="userSpaceOnUse">
<stop stop-color="#2AF598"/>
<stop offset="1" stop-color="#009EFD"/>
</linearGradient>
<linearGradient id="paint2_linear_128_5823" x1="37.9902" y1="23.6281" x2="41.8336" y2="23.6281" gradientUnits="userSpaceOnUse">
<stop stop-color="#2AF598"/>
<stop offset="1" stop-color="#009EFD"/>
</linearGradient>
<linearGradient id="paint3_linear_128_5823" x1="42.6924" y1="18.4833" x2="45.3169" y2="18.4833" gradientUnits="userSpaceOnUse">
<stop stop-color="#2AF598"/>
<stop offset="1" stop-color="#009EFD"/>
</linearGradient>
<linearGradient id="paint4_linear_128_5823" x1="41.5488" y1="16.2302" x2="48.6305" y2="16.2302" gradientUnits="userSpaceOnUse">
<stop stop-color="#2AF598"/>
<stop offset="1" stop-color="#009EFD"/>
</linearGradient>
</defs>
</svg>
