<svg width="50" height="50" viewBox="0 0 50 50" fill="none" xmlns="http://www.w3.org/2000/svg">
<path d="M44.8131 24.3238C45.9495 23.5922 46.6964 22.3808 46.6964 21.0106C46.6964 18.7883 44.7257 16.9808 42.3034 16.9808H30.5982C31.1515 15.9436 31.7118 14.2439 31.5838 11.7128C31.3322 6.52425 28.1838 3.83244 26.363 3.05974C25.289 2.60415 24.1203 2.71234 23.2374 3.34907C22.351 3.98827 21.3505 5.45626 21.618 8.82103C21.895 12.3178 17.4438 16.1109 15.2751 17.7406V16.4096C15.2751 15.9982 14.9421 15.6652 14.5307 15.6652H4.67313C4.26171 15.6652 3.92871 15.9982 3.92871 16.4096V43.2989C3.92871 43.7099 4.26171 44.0434 4.67313 44.0434H14.5307C14.9421 44.0434 15.2751 43.7099 15.2751 43.2989V41.9406C18.0811 42.9496 25.9714 45.6682 29.8706 45.7957L37.7004 45.8503C40.1198 45.8503 42.088 43.962 42.088 41.6414C42.088 40.5729 41.6692 39.5992 40.9848 38.8553C43.0731 38.5302 44.6741 36.7967 44.6741 34.7069C44.6741 33.5937 44.217 32.5828 43.4776 31.8295C45.3312 31.3352 46.6969 29.7064 46.6969 27.7739C46.6964 26.3466 45.95 25.085 44.8131 24.3238ZM5.41754 42.554V17.1535H13.7863V19.1486C13.7853 19.1684 13.7858 19.1883 13.7863 19.2081V40.8627C13.7858 40.8831 13.7848 40.9034 13.7863 40.9238V42.5545H5.41754V42.554ZM42.3034 30.4975H38.4875C38.486 30.4975 38.4845 30.4979 38.4826 30.4979H37.7004C37.2895 30.4979 36.956 30.8314 36.956 31.2424C36.956 31.6533 37.2895 31.9868 37.7004 31.9868H40.2786C41.8811 31.9868 43.1848 33.2071 43.1848 34.7064C43.1848 36.2056 41.8811 37.4255 40.2786 37.4255H37.7103C37.7069 37.4255 37.7039 37.425 37.7004 37.425H34.9639C34.553 37.425 34.2195 37.7585 34.2195 38.1694C34.2195 38.5803 34.553 38.9138 34.9639 38.9138H37.6955C37.6969 38.9138 37.6984 38.9143 37.7004 38.9143H37.7103C39.3039 38.9198 40.5987 40.1401 40.5987 41.6409C40.5987 43.1406 39.2984 44.361 37.7054 44.361L29.8999 44.3069C26.018 44.1793 17.4091 41.1322 15.2751 40.356V19.5803C16.8875 18.4711 23.4915 13.6126 23.1019 8.70341C22.9362 6.61656 23.2935 5.1441 24.1079 4.55701C24.7853 4.06917 25.56 4.33765 25.7818 4.43095C27.2826 5.06817 29.8811 7.33418 30.0969 11.7873C30.293 15.6573 28.7257 17.1049 28.6657 17.1585C28.428 17.361 28.3416 17.6895 28.4488 17.9828C28.557 18.2756 28.8354 18.4702 29.1476 18.4702H42.3029C43.9044 18.4702 45.2071 19.6101 45.2071 21.0111C45.2071 22.419 43.9044 23.5649 42.3029 23.5649H39.1203C38.7094 23.5649 38.3759 23.8979 38.3759 24.3094C38.3759 24.7208 38.7094 25.0538 39.1203 25.0538H42.3029C43.9044 25.0538 45.2071 26.2736 45.2071 27.7739C45.2076 29.2751 43.9049 30.4975 42.3034 30.4975Z" fill="url(#paint0_linear_128_5818)"/>
<defs>
<linearGradient id="paint0_linear_128_5818" x1="3.92871" y1="24.3158" x2="46.6969" y2="24.3158" gradientUnits="userSpaceOnUse">
<stop stop-color="#2AF598"/>
<stop offset="1" stop-color="#009EFD"/>
</linearGradient>
</defs>
</svg>
