<svg width="50" height="50" viewBox="0 0 50 50" fill="none" xmlns="http://www.w3.org/2000/svg">
<path d="M43.75 29.5H40V13.75C40 13.5511 39.921 13.3603 39.7803 13.2197C39.6397 13.079 39.4489 13 39.25 13H33.5V5.75C33.5 5.55109 33.421 5.36032 33.2803 5.21967C33.1397 5.07902 32.9489 5 32.75 5H17.25C17.0511 5 16.8603 5.07902 16.7197 5.21967C16.579 5.36032 16.5 5.55109 16.5 5.75V13H10.75C10.5511 13 10.3603 13.079 10.2197 13.2197C10.079 13.3603 10 13.5511 10 13.75V29.5H6.25C6.05109 29.5 5.86032 29.579 5.71967 29.7197C5.57902 29.8603 5.5 30.0511 5.5 30.25V39.75C5.5 39.9489 5.57902 40.1397 5.71967 40.2803C5.86032 40.421 6.05109 40.5 6.25 40.5H15.75C15.9489 40.5 16.1397 40.421 16.2803 40.2803C16.421 40.1397 16.5 39.9489 16.5 39.75V30.25C16.5 30.0511 16.421 29.8603 16.2803 29.7197C16.1397 29.579 15.9489 29.5 15.75 29.5H11.5V14.5H16.5V21.25C16.5 21.4489 16.579 21.6397 16.7197 21.7803C16.8603 21.921 17.0511 22 17.25 22H24.5V29.5H20.25C20.0511 29.5 19.8603 29.579 19.7197 29.7197C19.579 29.8603 19.5 30.0511 19.5 30.25V39.75C19.5 39.9489 19.579 40.1397 19.7197 40.2803C19.8603 40.421 20.0511 40.5 20.25 40.5H29.75C29.9489 40.5 30.1397 40.421 30.2803 40.2803C30.421 40.1397 30.5 39.9489 30.5 39.75V30.25C30.5 30.0511 30.421 29.8603 30.2803 29.7197C30.1397 29.579 29.9489 29.5 29.75 29.5H26V22H32.75C32.9489 22 33.1397 21.921 33.2803 21.7803C33.421 21.6397 33.5 21.4489 33.5 21.25V14.5H38.5V29.5H34.25C34.0511 29.5 33.8603 29.579 33.7197 29.7197C33.579 29.8603 33.5 30.0511 33.5 30.25V39.75C33.5 39.9489 33.579 40.1397 33.7197 40.2803C33.8603 40.421 34.0511 40.5 34.25 40.5H43.75C43.9489 40.5 44.1397 40.421 44.2803 40.2803C44.421 40.1397 44.5 39.9489 44.5 39.75V30.25C44.5 30.0511 44.421 29.8603 44.2803 29.7197C44.1397 29.579 43.9489 29.5 43.75 29.5V29.5ZM15 39H7V31H15V39ZM29 39H21V31H29V39ZM32 20.5H18V6.5H32V20.5ZM43 39H35V31H43V39Z" fill="url(#paint0_linear_128_5812)"/>
<defs>
<linearGradient id="paint0_linear_128_5812" x1="5.5" y1="22.75" x2="44.5" y2="22.75" gradientUnits="userSpaceOnUse">
<stop stop-color="#2AF598"/>
<stop offset="1" stop-color="#009EFD"/>
</linearGradient>
</defs>
</svg>
