<svg width="70" height="70" viewBox="0 0 70 70" fill="none" xmlns="http://www.w3.org/2000/svg">
<path d="M51.7524 31.8899C51.2746 31.4118 50.3187 32.3676 50.7966 32.8457C53.6641 35.7133 53.6641 40.0146 50.7966 42.8819C48.4071 43.8378 46.0172 43.8378 43.6276 42.8819C43.1499 42.8819 42.6718 42.4042 42.6718 41.9261C42.194 41.9261 41.2382 41.4483 40.7601 41.4483C38.8483 41.4483 36.9366 43.3601 34.5471 41.9261C33.1131 40.9703 33.5912 38.5804 31.6795 37.6245C26.9002 35.235 23.0767 43.3598 18.7758 40.4921C15.43 38.5804 18.2977 35.2349 20.6872 34.2791H22.5989C23.5547 34.2791 24.0326 32.8455 24.5107 32.3674C25.9447 30.4556 28.3342 29.9779 30.2459 30.9337C30.7237 31.4115 30.7237 31.4115 31.2017 31.4115C31.6795 31.4115 32.1576 31.8892 33.1135 31.4115C34.0693 30.9337 34.5475 29.9778 35.503 29.022C38.8484 27.1102 41.2382 29.022 44.1058 30.9337C45.5398 32.3674 49.3633 34.2791 50.7969 31.8896C51.7527 27.5883 49.8411 23.2867 46.4957 21.3745C45.5398 20.8968 45.062 20.8968 44.1062 21.3745C41.7163 21.8523 40.2823 24.2421 37.4147 20.4187C36.937 19.4629 36.937 18.507 35.9811 18.0289C33.1135 15.6394 28.8122 17.5511 26.4228 19.4629C24.0333 21.3746 21.6434 23.2864 19.7317 25.6759C18.298 28.0654 17.8199 30.4552 18.298 32.8448C18.298 33.3225 19.7317 33.3225 19.7317 32.8448C19.2539 29.4994 20.6875 25.6759 23.0774 23.2865C25.4669 21.3747 30.7244 16.1176 34.0695 18.5071C35.9813 19.9408 35.9813 22.3306 37.893 23.2865C39.8048 24.2423 40.7606 23.2865 42.6723 22.8087C44.5841 22.3309 46.0177 21.8529 47.4517 23.7645C48.4075 25.1982 48.8853 26.6319 49.3634 28.5435C49.3634 34.7569 42.6723 27.5877 40.2821 27.1099C38.8485 26.6321 36.9367 26.6321 35.5028 27.1099C34.0692 28.0657 33.1133 30.4553 31.2016 29.9774C29.2898 29.9774 29.2898 28.5434 27.3781 29.0216C26.4222 29.0216 25.4663 29.4994 24.9886 29.9774C23.5549 31.4111 22.121 32.3669 20.2092 32.845C17.3417 34.2787 14.474 37.6243 17.3417 40.492C21.1652 44.7933 24.0328 40.492 27.3779 38.5803C33.1132 36.1908 32.1572 44.7933 37.4141 43.3596C38.8478 42.8818 39.3259 42.4038 41.2376 42.4038C43.1494 42.4034 43.6275 43.8374 45.5392 44.3152C46.9729 44.7933 49.3627 44.7933 50.7964 43.8374C54.1421 40.9698 55.098 36.1904 52.2304 32.8453C52.2304 32.3672 51.7523 32.3672 51.7523 31.8895L51.7524 31.8899Z" fill="#171717"/>
<path d="M49.3628 45.2716C48.8847 47.6614 48.407 49.5732 47.9288 51.9627C47.451 54.3525 47.451 57.6979 45.5393 58.6537C43.6276 59.6096 42.1939 58.6537 41.2381 58.176H35.0251C31.6797 58.176 27.3781 59.6096 24.5101 57.6982C21.6421 55.7861 20.2085 47.1832 21.1643 43.8378H19.7306C19.2529 46.2273 19.2529 48.6171 19.7306 50.5289C19.7306 53.3964 20.6865 55.786 22.5982 57.6978C26.4217 60.5654 32.1565 58.1755 36.4578 58.1755C38.8473 58.1755 42.6708 59.6092 45.5382 58.6533C46.9718 57.6975 47.9277 55.7857 47.9277 53.874C49.3617 51.0067 49.8394 48.1391 50.3175 44.7936L49.3628 45.2716Z" fill="#171717"/>
<path d="M28.8116 52.919C28.8116 50.5295 28.8116 47.6619 28.3338 45.272C28.3338 44.7943 26.9001 44.7943 26.9001 45.272C26.9001 47.6615 27.3779 50.5292 27.3779 52.919C27.3776 53.3971 28.8116 53.3971 28.8116 52.919Z" fill="#171717"/>
<path d="M35.0245 53.397V46.228C35.0245 45.7503 33.5908 46.228 33.5908 46.7058V53.8747C34.0686 53.8747 35.0245 53.8747 35.0245 53.397Z" fill="#171717"/>
<path d="M41.7153 52.4412V45.7501C41.7153 45.7501 40.2817 45.7501 40.2817 46.2279V52.919C40.2813 52.919 41.7153 52.919 41.7153 52.4412Z" fill="#171717"/>
<path d="M38.3699 20.4191C40.7594 21.375 43.1492 20.8969 44.5829 18.9855C45.5391 17.5515 45.5391 15.6397 44.1051 14.6839V14.2058C43.1493 12.7721 39.8039 13.728 38.848 14.6839C37.892 15.6398 35.9804 19.4632 38.3699 20.4191H38.3699ZM38.848 16.1175C39.3258 15.1617 40.2817 14.6839 40.7598 14.6839H42.1934C41.7157 14.6839 41.7157 15.1616 42.1934 15.1616C43.6271 15.1616 44.1052 16.5953 44.1052 17.5511V18.0289C43.1493 19.941 41.2376 20.4191 39.3258 19.941C37.4141 19.4632 37.8922 17.5515 38.8481 16.1175L38.848 16.1175Z" fill="#171717"/>
<path d="M46.0165 14.2062C47.4502 12.2944 50.3178 11.3386 52.7076 11.3386C53.6634 11.8167 54.1416 10.8608 53.1857 10.8608C50.3181 10.383 46.9724 11.8166 45.0606 14.2062C45.0606 14.6843 46.0164 14.6843 46.0164 14.2062L46.0165 14.2062Z" fill="#171717"/>
</svg>
