<svg width="70" height="70" viewBox="0 0 70 70" fill="none" xmlns="http://www.w3.org/2000/svg">
<path d="M26.3966 14.0673C27.7142 15.3849 28.3732 19.338 26.3966 20.6556C25.7377 21.3146 27.0556 21.3146 27.0556 20.6556C28.3732 19.338 29.0322 18.0204 28.3732 16.0439C28.3732 14.7263 27.7142 14.0673 27.0556 12.7498C25.738 12.0912 25.079 11.4322 25.079 9.45569C25.079 8.79671 25.079 7.47909 25.738 7.47909C26.3966 7.47948 27.0556 6.8205 26.3966 6.8205C24.4204 6.8205 23.7614 8.1381 23.7614 10.1146C23.7614 12.0911 25.079 12.7498 26.3966 14.0673L26.3966 14.0673Z" fill="#171717"/>
<path d="M34.3026 15.3852C34.9616 16.7028 35.6206 19.3379 34.3026 19.9969C32.985 20.6559 34.3026 19.9969 34.3026 19.9969C35.6202 19.3379 36.9378 18.0203 36.2792 16.0438C35.6206 14.0672 30.3499 10.7735 34.9616 8.13791C35.6206 7.47893 34.3026 7.47893 34.3026 8.13791C32.3264 8.79689 31.6674 10.7734 32.3264 12.7496C32.3264 14.0672 33.644 14.0672 34.3026 15.3851L34.3026 15.3852Z" fill="#171717"/>
<path d="M42.2086 14.7263C43.5266 16.7029 42.8676 18.0204 40.891 19.997C40.2324 19.997 42.2086 19.997 42.2086 19.338C43.5262 18.0204 44.8438 16.7028 44.1852 14.7263C44.1852 14.7263 43.5262 14.0673 42.8676 13.4087C41.55 12.0911 40.891 10.1146 42.2086 8.79701C42.2086 8.13803 42.8676 8.13803 43.5262 8.13803C44.1852 7.47905 42.8673 7.47905 42.8673 8.13803C40.8911 8.79701 40.2325 10.7735 40.2325 12.0911C40.8911 13.4087 41.5501 14.0673 42.2087 14.7263L42.2086 14.7263Z" fill="#171717"/>
<path d="M19.8086 26.5854C24.4203 26.5854 29.691 27.2444 34.3026 26.5854C38.2557 27.2444 42.8674 26.5854 46.8206 26.5854C47.4796 26.5854 48.1382 25.9264 46.8206 25.9264C42.8679 26.5854 38.9151 26.5854 35.6206 25.9264C31.6675 24.6088 25.7382 25.9264 21.1266 25.2675C20.4677 25.9264 19.15 26.5855 19.8086 26.5855V26.5854Z" fill="#171717"/>
<path d="M25.0796 53.5974C25.7386 53.5974 27.0562 52.9384 26.3972 52.9384C21.1269 50.3032 21.1269 45.0325 20.4679 39.7614C19.1503 35.1497 19.1503 31.1966 20.4679 26.5844L19.1503 26.5848C17.8327 31.1965 17.8327 36.4672 19.1503 41.0788C19.8089 47.0081 20.4679 50.9608 25.0796 53.5968V53.5974Z" fill="#171717"/>
<path d="M48.7966 39.7614C48.7966 44.3731 47.479 51.6204 43.5259 54.9144C42.8669 55.5734 44.1849 55.5734 44.1849 54.9144C48.138 50.9613 50.1146 46.3496 50.1146 41.0794C50.7736 36.4677 50.7736 31.197 50.1146 25.9264C49.4556 25.9264 48.138 26.5854 48.138 26.5854C48.7966 30.5381 48.7966 35.1499 48.7966 39.7614L48.7966 39.7614Z" fill="#171717"/>
<path d="M46.1616 45.6914C45.5026 46.3499 44.844 47.6676 43.5264 48.3266L42.2084 49.6442C41.5498 50.3031 40.8908 50.9618 40.2322 50.9618C39.5732 51.6207 40.8908 52.2798 40.8908 51.6207C40.8908 50.9617 42.2084 50.9618 42.8674 50.3031L44.844 48.9855C46.1616 47.6679 46.8206 47.0089 47.4792 45.6914C48.1382 45.0325 46.8206 45.0325 46.1616 45.6914L46.1616 45.6914Z" fill="#171717"/>
<path d="M52.0906 29.8794C55.3847 30.5383 57.3613 33.1735 58.0199 36.4677C58.6789 40.4208 56.0433 43.056 52.7492 44.3736C52.0906 45.0321 52.7496 46.3498 53.4082 45.6912C56.7023 43.7146 59.9965 42.3971 59.3375 37.7853C59.3375 33.8322 56.7023 30.5384 52.7492 29.2205C52.0906 29.2205 51.432 29.8794 52.0906 29.8794L52.0906 29.8794Z" fill="#171717"/>
<path d="M60.6556 56.2324C58.0204 56.2324 54.7263 56.8914 51.4322 57.55C46.1615 57.55 40.8912 57.55 35.6202 56.891C27.0554 56.891 17.8322 56.232 9.26723 55.5734C9.26723 55.5734 8.60825 56.2324 9.26723 56.2324C11.2438 59.5265 12.5613 61.5031 16.5145 61.5031C23.7614 61.5031 31.0085 60.8441 37.5965 61.5031C44.1848 62.1621 50.1145 62.8207 56.0435 62.8207C59.9962 62.8207 60.6552 60.8441 60.6552 56.2324C61.3142 56.8914 61.3142 56.2324 60.6552 56.2324H60.6556ZM58.679 61.5031C58.02 62.1621 55.3849 61.5031 54.7259 61.5031H48.138C43.5263 61.5031 39.5732 60.8441 35.62 60.8441H19.808C14.5373 60.8441 13.2197 60.8441 10.5846 56.891C19.1494 57.55 27.7136 57.55 36.2786 58.2086C40.8903 58.2086 45.502 58.8676 50.1136 58.8676H56.7019C57.3609 58.8676 58.0195 58.8676 58.6785 58.2086H59.9961V59.5262C59.3371 59.5266 58.6781 60.8442 58.6781 61.5032L58.679 61.5031Z" fill="#171717"/>
<g clip-path="url(#clip0_11_348)">
<path d="M43.5786 31.5667C41.4043 29.9937 39.3592 29.97 38.2473 31.5038C37.5682 32.4316 37.5492 33.5086 38.1161 34.5652C37.4605 34.7128 36.7665 34.9843 36.045 35.4232C33.7346 36.7982 32.9031 38.6709 33.8814 40.2999C34.8671 41.9408 36.9053 42.0854 39.2038 40.7179L39.3823 40.6052C40.7984 39.7115 41.6183 38.6115 41.7314 37.5251C42.792 37.8873 43.7539 37.8293 44.5035 37.3562C44.7891 37.1759 45.0491 36.9286 45.2715 36.6219C46.4029 35.0925 45.7485 33.1591 43.5786 31.5667ZM36.4344 36.0926C36.8227 35.8641 37.6932 35.3979 38.5862 35.2836C38.8172 35.5704 39.0914 35.8467 39.4163 36.1242C38.4806 36.3819 37.6839 37.0179 37.2717 37.8937C36.9052 38.6576 36.1498 39.2009 35.2925 39.2927L34.3488 39.4058C33.8539 37.8044 35.7842 36.4862 36.4344 36.0926ZM38.807 40.0364C38.1332 40.4452 35.9023 41.6035 34.7399 40.1573L35.378 40.0874C35.879 40.0374 36.348 39.8578 36.7646 39.5949C37.2882 39.2645 37.7097 38.7987 37.9698 38.2352C38.3363 37.4713 39.0917 36.9281 39.949 36.8363L40.274 36.7976C40.5044 36.9516 40.7392 37.0864 40.9589 37.1973C41.0023 38.5844 39.3858 39.6879 38.807 40.0364ZM40.4088 35.9304C39.7608 35.4575 37.8251 33.867 38.7054 32.2297L39.0271 32.7922C39.5804 33.7742 40.6304 34.4095 41.7418 34.4568C42.5921 34.4858 43.3878 34.9821 43.8103 35.7305L44.2853 36.5621C42.9938 37.6268 41.0223 36.3751 40.4088 35.9304ZM44.8209 35.9079L44.4992 35.3455C43.9459 34.3634 42.896 33.7282 41.7846 33.6809C40.9342 33.6518 40.1385 33.1556 39.716 32.4072L39.241 31.5755C40.5445 30.5033 42.5041 31.7625 43.1176 32.2072C43.758 32.6684 45.7012 34.2707 44.8209 35.9079Z" fill="#171717"/>
</g>
<defs>
<clipPath id="clip0_11_348">
<rect width="17.5897" height="17.5897" fill="white" transform="translate(27.2821 33.7986) rotate(-32.2586)"/>
</clipPath>
</defs>
</svg>
