<svg width="110" height="110" viewBox="0 0 110 110" fill="none" xmlns="http://www.w3.org/2000/svg">
<path d="M41.4805 22.1057C43.551 24.1762 44.5866 30.3882 41.4805 32.4588C40.4449 33.4943 42.516 33.4943 42.516 32.4588C44.5865 30.3882 45.6221 28.3177 44.5865 25.2118C44.5865 23.1413 43.551 22.1057 42.516 20.0354C40.4455 19.0004 39.4099 17.9648 39.4099 14.8589C39.4099 13.8234 39.4099 11.7528 40.4455 11.7528C41.4804 11.7534 42.516 10.7179 41.4804 10.7179C38.3749 10.7179 37.3394 12.7884 37.3394 15.8943C37.3394 19.0003 39.4099 20.0354 41.4804 22.1057L41.4805 22.1057Z" fill="url(#paint0_linear_11_321)"/>
<path d="M53.9042 24.1767C54.9397 26.2473 55.9753 30.3881 53.9042 31.4237C51.8337 32.4592 53.9042 31.4237 53.9042 31.4237C55.9747 30.3882 58.0452 28.3176 57.0103 25.2117C55.9753 22.1056 47.6928 16.9298 54.9398 12.7881C55.9753 11.7526 53.9042 11.7526 53.9042 12.7881C50.7988 13.8237 49.7632 16.9296 50.7988 20.0351C50.7988 22.1056 52.8693 22.1056 53.9042 24.1766L53.9042 24.1767Z" fill="url(#paint1_linear_11_321)"/>
<path d="M66.3279 23.1412C68.399 26.2473 67.3634 28.3177 64.2574 31.4238C63.2225 31.4238 66.3279 31.4238 66.3279 30.3882C68.3984 28.3177 70.4689 26.2472 69.434 23.1413C69.434 23.1413 68.3984 22.1057 67.3635 21.0708C65.293 19.0002 64.2574 15.8943 66.3279 13.8238C66.3279 12.7883 67.3635 12.7883 68.3984 12.7883C69.434 11.7527 67.3629 11.7527 67.3629 12.7883C64.2574 13.8238 63.2225 16.9298 63.2225 19.0003C64.2574 21.0708 65.293 22.1057 66.328 23.1413L66.3279 23.1412Z" fill="url(#paint2_linear_11_321)"/>
<path d="M31.1279 41.777C38.3749 41.777 46.6574 42.8126 53.9042 41.777C60.1162 42.8126 67.3632 41.777 73.5753 41.777C74.6109 41.777 75.6458 40.7415 73.5753 40.7415C67.3639 41.777 61.1524 41.777 55.9753 40.7415C49.7633 38.671 40.4458 40.7415 33.199 39.7059C32.1635 40.7415 30.093 41.7771 31.1279 41.7771V41.777Z" fill="url(#paint3_linear_11_321)"/>
<path d="M39.4109 84.2245C40.4464 84.2245 42.517 83.1889 41.4814 83.1889C33.1995 79.0479 33.1995 70.7654 32.1639 62.4822C30.0934 55.2353 30.0934 49.0233 32.1639 41.7755L30.0934 41.7761C28.0229 49.0231 28.0229 57.3056 30.0934 64.5524C31.1284 73.8699 32.1639 80.0813 39.4109 84.2235V84.2245Z" fill="url(#paint4_linear_11_321)"/>
<path d="M76.6805 62.4822C76.6805 69.7291 74.61 81.1177 68.398 86.294C67.3624 87.3295 69.4335 87.3295 69.4335 86.294C75.6455 80.082 78.7516 72.835 78.7516 64.5533C79.7871 57.3063 79.7871 49.0238 78.7516 40.7415C77.716 40.7415 75.6455 41.777 75.6455 41.777C76.6804 47.9884 76.6804 55.2355 76.6804 62.4821L76.6805 62.4822Z" fill="url(#paint5_linear_11_321)"/>
<path d="M81.8567 46.9533C87.0332 47.9888 90.1393 52.1297 91.1742 57.3063C92.2098 63.5183 88.0681 67.6594 82.8917 69.7299C81.8568 70.7648 82.8923 72.8353 83.9272 71.8004C89.1037 68.6943 94.2803 66.6239 93.2447 59.3768C93.2447 53.1648 89.1037 47.9888 82.8917 45.9178C81.8567 45.9178 80.8218 46.9534 81.8567 46.9534L81.8567 46.9533Z" fill="url(#paint6_linear_11_321)"/>
<path d="M95.316 88.3651C91.175 88.3651 85.9986 89.4007 80.8221 90.4356C72.5396 90.4356 64.2577 90.4356 55.9747 89.4001C42.5157 89.4001 28.0221 88.3646 14.5628 87.3296C14.5628 87.3296 13.5273 88.3651 14.5628 88.3651C17.6689 93.5416 19.7393 96.6477 25.9515 96.6477C37.3394 96.6477 48.7277 95.6121 59.0803 96.6477C69.4334 97.6832 78.7514 98.7182 88.0685 98.7182C94.2798 98.7182 95.3154 95.6121 95.3154 88.3651C96.351 89.4007 96.351 88.3651 95.3154 88.3651H95.316ZM92.21 96.6477C91.1744 97.6832 87.0335 96.6477 85.9979 96.6477H75.6455C68.3986 96.6477 62.1866 95.6121 55.9744 95.6121H31.127C22.8444 95.6121 20.7739 95.6121 16.633 89.4001C30.092 90.4356 43.55 90.4356 57.0093 91.4706C64.2563 91.4706 71.5032 92.5062 78.75 92.5062H89.1031C90.1386 92.5062 91.1736 92.5062 92.2092 91.4706H94.2797V93.5411C93.2441 93.5417 92.2085 95.6123 92.2085 96.6478L92.21 96.6477Z" fill="url(#paint7_linear_11_321)"/>
<g clip-path="url(#clip0_11_321)">
<path d="M42.7463 56.4519C43.0393 56.3682 43.2512 56.2098 43.4213 55.9709C43.5961 55.7308 43.7204 55.3973 43.795 55.0112C43.9395 54.2399 43.868 53.252 43.6857 52.4005L43.6806 52.3815C43.6551 52.2866 43.6028 52.2243 43.5307 52.1827C43.4597 52.1457 43.3688 52.1294 43.2644 52.1574L43.2502 52.1612C42.6299 52.3528 41.9062 52.7655 41.4398 53.3991C40.9831 54.0301 40.7384 54.8638 41.0386 56.0601C41.1239 55.8847 41.2415 55.7158 41.3784 55.5621C41.5387 55.3818 41.6363 55.2335 41.7229 55.0628C41.8142 54.8908 41.8931 54.6917 42.002 54.4336C42.0847 54.2486 42.3002 54.1604 42.4851 54.2431C42.6748 54.3245 42.7584 54.5412 42.6769 54.7308C42.5737 54.9721 42.4878 55.1833 42.3782 55.4009C42.2674 55.6137 42.1267 55.8295 41.9266 56.0509C41.8248 56.1647 41.741 56.2889 41.6883 56.4149C42.1347 56.5242 42.4851 56.5219 42.7462 56.4519L42.7463 56.4519ZM37.648 54.761C37.6006 54.7737 37.5629 54.8041 37.535 54.8523C37.5107 54.8945 37.5009 54.953 37.5136 55.0004L37.5162 55.01C37.656 55.4558 37.8569 55.9208 38.0957 56.2993C38.3346 56.6778 38.6135 56.9592 38.8728 57.0729C39.0518 57.152 39.2095 57.1709 39.4041 57.1187C39.5276 57.0857 39.6732 57.0212 39.8344 56.9017C39.7131 56.8477 39.6012 56.7912 39.4989 56.7322C39.3218 56.622 39.1698 56.5101 38.9902 56.3903C38.826 56.2715 38.7805 56.0447 38.8981 55.8759C39.0109 55.7083 39.2438 55.6662 39.4128 55.7838C39.5996 55.9118 39.7397 56.0167 39.8734 56.0978C40.0106 56.173 40.1344 56.2365 40.3272 56.2916C40.332 56.2903 40.3333 56.2951 40.338 56.2939L40.3316 56.2701C40.0971 55.4327 39.6708 55.0382 39.1787 54.8345C38.6865 54.6306 38.1003 54.6452 37.6528 54.7601L37.6481 54.7612L37.648 54.761ZM42.937 57.1638C42.5275 57.2684 42.0685 57.2643 41.5406 57.1361C41.541 57.2327 41.5557 57.3254 41.5764 57.4216L41.5828 57.4453C41.7481 58.0622 42.0852 58.6179 42.5526 59.0521L42.56 59.0603C42.6496 59.1482 42.7467 59.2442 42.8427 59.3559C42.9752 59.5086 42.9565 59.7425 42.8037 59.8749C42.651 60.0073 42.417 59.9887 42.2845 59.836C42.2188 59.762 42.1399 59.6763 42.0515 59.5932C42.0503 59.5884 42.0455 59.5897 42.0442 59.585C41.4751 59.0561 41.0704 58.3811 40.8708 57.6361C40.8212 57.451 40.7467 57.3439 40.6342 57.2469C40.6209 57.2351 40.6076 57.2235 40.5895 57.213C40.2634 57.5343 39.9367 57.739 39.5949 57.8305C39.2402 57.9307 38.877 57.8856 38.5695 57.7441C38.2632 57.6074 38.0044 57.3818 37.7818 57.121C37.3389 56.5885 37.0209 55.8955 36.8119 55.2292L36.8017 55.1912C36.6742 54.6964 36.9553 54.1887 37.4572 54.0491L37.4762 54.044L37.4953 54.0389C38.0592 53.9031 38.774 53.8744 39.458 54.1488C39.7196 54.2516 39.9701 54.4082 40.1929 54.6131C40.2692 53.9671 40.5113 53.4087 40.8448 52.9633C41.4393 52.1631 42.285 51.6925 43.0261 51.4582L43.0736 51.4455C43.3536 51.3705 43.6475 51.4036 43.887 51.5378C44.1264 51.672 44.3163 51.9061 44.3926 52.1908L44.4079 52.2477C44.5531 52.9413 44.6362 53.7074 44.5971 54.4352C44.558 55.1628 44.4075 55.8542 44.0244 56.3994C43.7695 56.7577 43.4022 57.0392 42.937 57.1638L42.937 57.1638Z" fill="#171717"/>
</g>
<path d="M41.894 40.3617C42.3534 43.693 41.4847 46.8912 41.4847 50.1837" stroke="url(#paint8_linear_11_321)" stroke-width="2" stroke-linecap="round"/>
<path d="M34.0058 51.2645C36.822 50.6743 39.632 50.0225 42.5224 50.006C44.2214 49.9963 45.9207 50.006 47.6197 50.006" stroke="url(#paint9_linear_11_321)" stroke-width="2" stroke-linecap="round"/>
<path d="M36.1026 61.053C39.2485 60.0806 42.3178 59.7946 45.5916 59.7946C46.3183 59.7946 47.045 59.7946 47.7716 59.7946" stroke="url(#paint10_linear_11_321)" stroke-width="2" stroke-linecap="round"/>
<path d="M33.4338 51.8364C34.1514 52.9427 34.1986 54.6966 34.6414 55.9549C34.897 56.6813 36.1345 60.6514 36.9488 60.9228" stroke="url(#paint11_linear_11_321)" stroke-linecap="round"/>
<path d="M47.9629 50.578C47.9629 51.9466 47.9629 53.3152 47.9629 54.6838C47.9629 55.0856 47.9477 55.4755 48.0519 55.8659C48.1448 56.2143 48.1917 59.7946 48.3974 60.1031" stroke="url(#paint12_linear_11_321)" stroke-linecap="round"/>
<defs>
<linearGradient id="paint0_linear_11_321" x1="37.3394" y1="21.9767" x2="44.9928" y2="21.9767" gradientUnits="userSpaceOnUse">
<stop stop-color="#171717"/>
<stop offset="1" stop-color="#171717"/>
</linearGradient>
<linearGradient id="paint1_linear_11_321" x1="50.4104" y1="21.9477" x2="57.2855" y2="21.9477" gradientUnits="userSpaceOnUse">
<stop stop-color="#171717"/>
<stop offset="1" stop-color="#171717"/>
</linearGradient>
<linearGradient id="paint2_linear_11_321" x1="63.2225" y1="21.7177" x2="69.7092" y2="21.7177" gradientUnits="userSpaceOnUse">
<stop stop-color="#171717"/>
<stop offset="1" stop-color="#171717"/>
</linearGradient>
<linearGradient id="paint3_linear_11_321" x1="30.8459" y1="40.9716" x2="74.7708" y2="40.9716" gradientUnits="userSpaceOnUse">
<stop stop-color="#171717"/>
<stop offset="1" stop-color="#171717"/>
</linearGradient>
<linearGradient id="paint4_linear_11_321" x1="28.5405" y1="63" x2="41.7637" y2="63" gradientUnits="userSpaceOnUse">
<stop stop-color="#171717"/>
<stop offset="1" stop-color="#171717"/>
</linearGradient>
<linearGradient id="paint5_linear_11_321" x1="68.108" y1="63.9061" x2="79.5282" y2="63.9061" gradientUnits="userSpaceOnUse">
<stop stop-color="#171717"/>
<stop offset="1" stop-color="#171717"/>
</linearGradient>
<linearGradient id="paint6_linear_11_321" x1="81.428" y1="59.0001" x2="93.378" y2="59.0001" gradientUnits="userSpaceOnUse">
<stop stop-color="#171717"/>
<stop offset="1" stop-color="#171717"/>
</linearGradient>
<linearGradient id="paint7_linear_11_321" x1="14.1026" y1="93.0239" x2="96.0921" y2="93.0239" gradientUnits="userSpaceOnUse">
<stop stop-color="#171717"/>
<stop offset="1" stop-color="#171717"/>
</linearGradient>
<linearGradient id="paint8_linear_11_321" x1="41.4847" y1="45.2727" x2="42.0281" y2="45.2727" gradientUnits="userSpaceOnUse">
<stop stop-color="#171717"/>
<stop offset="1" stop-color="#171717"/>
</linearGradient>
<linearGradient id="paint9_linear_11_321" x1="34.0058" y1="50.6331" x2="47.6197" y2="50.6331" gradientUnits="userSpaceOnUse">
<stop stop-color="#171717"/>
<stop offset="1" stop-color="#171717"/>
</linearGradient>
<linearGradient id="paint10_linear_11_321" x1="36.1026" y1="60.4238" x2="47.7716" y2="60.4238" gradientUnits="userSpaceOnUse">
<stop stop-color="#171717"/>
<stop offset="1" stop-color="#171717"/>
</linearGradient>
<linearGradient id="paint11_linear_11_321" x1="33.4338" y1="56.3796" x2="36.9488" y2="56.3796" gradientUnits="userSpaceOnUse">
<stop stop-color="#171717"/>
<stop offset="1" stop-color="#171717"/>
</linearGradient>
<linearGradient id="paint12_linear_11_321" x1="47.9621" y1="55.3406" x2="48.3974" y2="55.3406" gradientUnits="userSpaceOnUse">
<stop stop-color="#171717"/>
<stop offset="1" stop-color="#171717"/>
</linearGradient>
<clipPath id="clip0_11_321">
<rect width="11.2623" height="11.2623" fill="white" transform="translate(34.6458 53.2373) rotate(-15)"/>
</clipPath>
</defs>
</svg>
